<svg version="1.1" viewBox="0.0 0.0 480.0 480.0" fill="none" stroke="none" stroke-linecap="square" stroke-miterlimit="10" xmlns:xlink="http://www.w3.org/1999/xlink" xmlns="http://www.w3.org/2000/svg"><clipPath id="p.0"><path d="m0 0l480.0 0l0 480.0l-480.0 0l0 -480.0z" clip-rule="nonzero"/></clipPath><g clip-path="url(#p.0)"><path fill="#000000" fill-opacity="0.0" d="m0 0l480.0 0l0 480.0l-480.0 0z" fill-rule="evenodd"/><path fill="#ffffff" d="m0 0l480.0 0l0 480.0l-480.0 0z" fill-rule="evenodd"/><path fill="#f1c232" d="m215.43507 64.12001l49.070877 0l0 347.9685l-49.070877 0z" fill-rule="evenodd"/><path fill="#f1c232" d="m374.75253 147.66742l0 48.850403l-269.5118 0l0 -48.850403z" fill-rule="evenodd"/><path fill="#f1c232" d="m106.56763 137.76807l34.582672 34.362213l-34.582672 34.362198l-34.58268 -34.362198z" fill-rule="evenodd"/><path fill="#f1c232" d="m373.4305 137.76807l34.582672 34.362213l-34.582672 34.362198l-34.582672 -34.362198z" fill-rule="evenodd"/><path fill="#f1c232" d="m205.48755 417.5089l34.582672 -34.362213l34.582672 34.362213l-34.582672 34.362183z" fill-rule="evenodd"/><path fill="#f1c232" d="m205.48755 62.492245l34.582672 -34.362206l34.582672 34.362206l-34.582672 34.36221z" fill-rule="evenodd"/></g></svg>